<svg xmlns="http://www.w3.org/2000/svg" viewBox="0 0 64 64">
  <!-- Water waves -->
  <path d="M0 48 Q8 45 16 48 T32 48 T48 48 T64 48 L64 64 L0 64 Z" fill="#003366"/>

  <!-- Ship hull -->
  <path d="M12 38 L52 38 L48 48 L16 48 Z" fill="#FFC72C"/>

  <!-- Ship deck -->
  <rect x="16" y="32" width="32" height="6" fill="#004080"/>

  <!-- Ship superstructure -->
  <rect x="24" y="22" width="16" height="10" fill="#FFC72C"/>

  <!-- Bridge windows -->
  <rect x="26" y="24" width="4" height="3" fill="#003366"/>
  <rect x="34" y="24" width="4" height="3" fill="#003366"/>

  <!-- Funnel/Chimney -->
  <rect x="30" y="14" width="4" height="8" rx="1" fill="#003366"/>

  <!-- Anchor symbol -->
  <g transform="translate(32, 38)" fill="#003366">
    <circle cx="0" cy="0" r="1.5"/>
    <line x1="0" y1="0" x2="0" y2="6" stroke="#003366" stroke-width="1.5"/>
    <path d="M-3 6 L0 9 L3 6" fill="none" stroke="#003366" stroke-width="1.5" stroke-linecap="round" stroke-linejoin="round"/>
    <line x1="-3" y1="3" x2="3" y2="3" stroke="#003366" stroke-width="1.5" stroke-linecap="round"/>
  </g>

  <!-- Portholes -->
  <circle cx="20" cy="35" r="1.5" fill="#003366"/>
  <circle cx="28" cy="35" r="1.5" fill="#003366"/>
  <circle cx="36" cy="35" r="1.5" fill="#003366"/>
  <circle cx="44" cy="35" r="1.5" fill="#003366"/>
</svg>
